<mxfile host="65bd71144e">
    <diagram id="Tgz0-d4jHKlGSeKZeXzf" name="Page-1">
        <mxGraphModel dx="1716" dy="934" grid="1" gridSize="10" guides="1" tooltips="1" connect="1" arrows="1" fold="1" page="1" pageScale="1" pageWidth="850" pageHeight="1100" math="0" shadow="0">
            <root>
                <mxCell id="0"/>
                <mxCell id="1" parent="0"/>
                <mxCell id="7" value="" style="shape=umlLifeline;participant=umlActor;perimeter=lifelinePerimeter;whiteSpace=wrap;html=1;container=1;collapsible=0;recursiveResize=0;verticalAlign=top;spacingTop=36;outlineConnect=0;size=90;" vertex="1" parent="1">
                    <mxGeometry x="80" y="50" width="60" height="540" as="geometry"/>
                </mxCell>
                <mxCell id="9" value="UI" style="shape=umlLifeline;perimeter=lifelinePerimeter;whiteSpace=wrap;html=1;container=1;collapsible=0;recursiveResize=0;outlineConnect=0;lifelineDashed=0;" vertex="1" parent="1">
                    <mxGeometry x="370" y="80" width="100" height="900" as="geometry"/>
                </mxCell>
                <mxCell id="10" value="Database" style="shape=umlLifeline;perimeter=lifelinePerimeter;whiteSpace=wrap;html=1;container=1;collapsible=0;recursiveResize=0;outlineConnect=0;lifelineDashed=0;" vertex="1" parent="1">
                    <mxGeometry x="620" y="80" width="100" height="910" as="geometry"/>
                </mxCell>
                <mxCell id="11" value="loop" style="shape=umlFrame;whiteSpace=wrap;html=1;width=40;height=20;" vertex="1" parent="1">
                    <mxGeometry x="50" y="223" width="720" height="200" as="geometry"/>
                </mxCell>
                <mxCell id="12" value="alt" style="shape=umlFrame;whiteSpace=wrap;html=1;width=40;height=20;" vertex="1" parent="1">
                    <mxGeometry x="70" y="290" width="660" height="100" as="geometry"/>
                </mxCell>
                <mxCell id="15" value="ouvrir un site" style="html=1;verticalAlign=bottom;endArrow=open;entryX=0.495;entryY=0.104;entryDx=0;entryDy=0;entryPerimeter=0;exitX=1.05;exitY=0.076;exitDx=0;exitDy=0;exitPerimeter=0;endFill=0;" edge="1" parent="1" source="19" target="9">
                    <mxGeometry width="80" relative="1" as="geometry">
                        <mxPoint x="220" y="180" as="sourcePoint"/>
                        <mxPoint x="300" y="180" as="targetPoint"/>
                    </mxGeometry>
                </mxCell>
                <mxCell id="16" value="demade d'inscription" style="html=1;verticalAlign=bottom;endArrow=open;dashed=1;endSize=8;entryX=1.15;entryY=0.156;entryDx=0;entryDy=0;entryPerimeter=0;" edge="1" parent="1" source="9" target="19">
                    <mxGeometry relative="1" as="geometry">
                        <mxPoint x="300" y="200" as="sourcePoint"/>
                        <mxPoint x="220" y="200" as="targetPoint"/>
                        <Array as="points">
                            <mxPoint x="370" y="200"/>
                            <mxPoint x="250" y="200"/>
                        </Array>
                    </mxGeometry>
                </mxCell>
                <mxCell id="18" value="&lt;font style=&quot;font-size: 8px&quot;&gt;for([les information sont incorrectes])&lt;/font&gt;" style="text;html=1;strokeColor=none;fillColor=none;align=center;verticalAlign=middle;whiteSpace=wrap;rounded=0;" vertex="1" parent="1">
                    <mxGeometry x="115" y="220" width="135" height="17" as="geometry"/>
                </mxCell>
                <mxCell id="19" value="" style="html=1;points=[];perimeter=orthogonalPerimeter;" vertex="1" parent="1">
                    <mxGeometry x="105" y="150" width="10" height="340" as="geometry"/>
                </mxCell>
                <mxCell id="21" value="&lt;font style=&quot;font-size: 12px&quot;&gt;saisir les information d'instcription&lt;/font&gt;" style="html=1;verticalAlign=bottom;endArrow=open;entryX=0.514;entryY=0.185;entryDx=0;entryDy=0;entryPerimeter=0;endFill=0;" edge="1" parent="1">
                    <mxGeometry width="80" relative="1" as="geometry">
                        <mxPoint x="120" y="270" as="sourcePoint"/>
                        <mxPoint x="420.0799999999999" y="270" as="targetPoint"/>
                    </mxGeometry>
                </mxCell>
                <mxCell id="24" value="" style="html=1;points=[];perimeter=orthogonalPerimeter;" vertex="1" parent="1">
                    <mxGeometry x="667" y="272" width="10" height="98" as="geometry"/>
                </mxCell>
                <mxCell id="25" value="&lt;font style=&quot;font-size: 8px&quot;&gt;if([les information sont correctes])&lt;/font&gt;" style="text;html=1;strokeColor=none;fillColor=none;align=center;verticalAlign=middle;whiteSpace=wrap;rounded=0;" vertex="1" parent="1">
                    <mxGeometry x="116" y="291" width="125" height="10" as="geometry"/>
                </mxCell>
                <mxCell id="26" value="&lt;font style=&quot;font-size: 12px&quot;&gt;les informationns sont corrects&lt;/font&gt;" style="html=1;verticalAlign=bottom;endArrow=open;dashed=1;endSize=8;fontSize=10;entryX=0.53;entryY=0.3;entryDx=0;entryDy=0;entryPerimeter=0;" edge="1" parent="1">
                    <mxGeometry relative="1" as="geometry">
                        <mxPoint x="665" y="317" as="sourcePoint"/>
                        <mxPoint x="424.8000000000002" y="317" as="targetPoint"/>
                    </mxGeometry>
                </mxCell>
                <mxCell id="27" value="&lt;font style=&quot;font-size: 12px&quot;&gt;l'inscription se temine&lt;/font&gt;" style="html=1;verticalAlign=bottom;endArrow=open;dashed=1;endSize=8;fontSize=10;entryX=0.53;entryY=0.3;entryDx=0;entryDy=0;entryPerimeter=0;" edge="1" parent="1">
                    <mxGeometry relative="1" as="geometry">
                        <mxPoint x="420" y="326" as="sourcePoint"/>
                        <mxPoint x="115.00000000000017" y="325.5" as="targetPoint"/>
                    </mxGeometry>
                </mxCell>
                <mxCell id="28" value="" style="endArrow=none;dashed=1;html=1;fontSize=12;entryX=0.999;entryY=0.51;entryDx=0;entryDy=0;entryPerimeter=0;exitX=0;exitY=0.5;exitDx=0;exitDy=0;exitPerimeter=0;" edge="1" parent="1" source="12" target="12">
                    <mxGeometry width="50" height="50" relative="1" as="geometry">
                        <mxPoint x="220" y="590" as="sourcePoint"/>
                        <mxPoint x="270" y="540" as="targetPoint"/>
                    </mxGeometry>
                </mxCell>
                <mxCell id="29" value="&lt;span style=&quot;font-size: 12px&quot;&gt;saisir les information&lt;/span&gt;" style="html=1;verticalAlign=bottom;endArrow=open;entryX=0.514;entryY=0.185;entryDx=0;entryDy=0;entryPerimeter=0;endFill=0;" edge="1" parent="1">
                    <mxGeometry width="80" relative="1" as="geometry">
                        <mxPoint x="420" y="270" as="sourcePoint"/>
                        <mxPoint x="670.0799999999999" y="270" as="targetPoint"/>
                    </mxGeometry>
                </mxCell>
                <mxCell id="30" value="&lt;font style=&quot;font-size: 8px&quot;&gt;else[les information sont incorrectes]&lt;/font&gt;" style="text;html=1;strokeColor=none;fillColor=none;align=center;verticalAlign=middle;whiteSpace=wrap;rounded=0;" vertex="1" parent="1">
                    <mxGeometry x="114" y="340" width="140" height="10" as="geometry"/>
                </mxCell>
                <mxCell id="31" value="&lt;font style=&quot;font-size: 12px&quot;&gt;les informationns sont incorrects&lt;/font&gt;" style="html=1;verticalAlign=bottom;endArrow=open;dashed=1;endSize=8;fontSize=10;entryX=0.53;entryY=0.3;entryDx=0;entryDy=0;entryPerimeter=0;" edge="1" parent="1">
                    <mxGeometry relative="1" as="geometry">
                        <mxPoint x="665.2" y="363" as="sourcePoint"/>
                        <mxPoint x="425.00000000000017" y="363" as="targetPoint"/>
                    </mxGeometry>
                </mxCell>
                <mxCell id="32" value="&lt;span style=&quot;font-size: 12px&quot;&gt;essayer a nouveau&lt;/span&gt;" style="html=1;verticalAlign=bottom;endArrow=open;dashed=1;endSize=8;fontSize=10;entryX=0.53;entryY=0.3;entryDx=0;entryDy=0;entryPerimeter=0;" edge="1" parent="1">
                    <mxGeometry relative="1" as="geometry">
                        <mxPoint x="420" y="376.5" as="sourcePoint"/>
                        <mxPoint x="115.00000000000023" y="376" as="targetPoint"/>
                    </mxGeometry>
                </mxCell>
            </root>
        </mxGraphModel>
    </diagram>
</mxfile>